<svg width="259" height="134" viewBox="0 0 259 134" fill="none" xmlns="http://www.w3.org/2000/svg">
<rect width="203" height="67" transform="translate(28.5889)" fill="#101010"/>
<path d="M62.3875 24C56.5777 24 52.5889 27.875 52.5889 34.2042V44.7958C52.5889 51.125 56.5777 55 62.3875 55C68.1973 55 72.1861 51.125 72.1861 44.7958V38.5528H62.3875V41.825H68.8476V44.7958C68.8476 49.3597 65.9861 51.7278 62.3875 51.7278C58.7889 51.7278 55.9273 49.3597 55.9273 44.7958V34.2042C55.9273 29.6403 58.7889 27.2722 62.3875 27.2722C65.7693 27.2722 68.4574 29.3389 68.8043 33.3431H72.1428C71.7959 27.5306 67.9372 24 62.3875 24Z" fill="white"/>
<path d="M84.6901 40.9639H95.5727V37.6917H84.6901V27.7028H98.6076V24.4306H81.3517V54.5694H98.6076V51.2972H84.6901V40.9639Z" fill="white"/>
<path d="M123.252 44.7958C123.252 49.3597 120.39 51.7278 116.791 51.7278C113.193 51.7278 110.331 49.3597 110.331 44.7958V34.2042C110.331 29.6403 113.193 27.2722 116.791 27.2722C120.39 27.2722 123.252 29.6403 123.252 34.2042V44.7958ZM126.59 34.2042C126.59 27.875 122.601 24 116.791 24C110.982 24 106.993 27.875 106.993 34.2042V44.7958C106.993 51.125 110.982 55 116.791 55C122.601 55 126.59 51.125 126.59 44.7958V34.2042Z" fill="white"/>
<path d="M143.256 40.9208L151.321 54.5694H155.179L147.072 40.8347C152.274 40.1458 154.182 36.3569 154.182 32.6972C154.182 28.6931 151.884 24.4306 145.424 24.4306H135.105V54.5694H138.444V40.9208H143.256ZM150.8 32.6972C150.8 35.5819 148.849 37.7347 145.424 37.7347H138.444V27.7028H145.424C148.849 27.7028 150.8 29.8125 150.8 32.6972Z" fill="white"/>
<path d="M171.369 24C165.559 24 161.57 27.875 161.57 34.2042V44.7958C161.57 51.125 165.559 55 171.369 55C177.179 55 181.167 51.125 181.167 44.7958V38.5528H171.369V41.825H177.829V44.7958C177.829 49.3597 174.967 51.7278 171.369 51.7278C167.77 51.7278 164.909 49.3597 164.909 44.7958V34.2042C164.909 29.6403 167.77 27.2722 171.369 27.2722C174.751 27.2722 177.439 29.3389 177.786 33.3431H181.124C180.777 27.5306 176.918 24 171.369 24Z" fill="white"/>
<path d="M193.671 40.9639H204.554V37.6917H193.671V27.7028H207.589V24.4306H190.333V54.5694H207.589V51.2972H193.671V40.9639Z" fill="white"/>
<rect width="259" height="67" transform="translate(0 67)" fill="#101010"/>
<path d="M27.357 100.7L32.763 94.4139L42.8775 109.569H46.8448L34.9864 91.8306L45.7113 79.4306H41.4388L27.357 95.7917V79.4306H24V109.569H27.357V100.7Z" fill="white"/>
<path d="M56.6279 95.9639H67.5707V92.6917H56.6279V82.7028H70.6225V79.4306H53.2709V109.569H70.6225V106.297H56.6279V95.9639Z" fill="white"/>
<path d="M88.1222 95.9208L96.2313 109.569H100.111L91.9588 95.8347C97.1904 95.1458 99.1087 91.3569 99.1087 87.6972C99.1087 83.6931 96.798 79.4306 90.3021 79.4306H79.926V109.569H83.283V95.9208H88.1222ZM95.7081 87.6972C95.7081 90.5819 93.7462 92.7347 90.3021 92.7347H83.283V82.7028H90.3021C93.7462 82.7028 95.7081 84.8125 95.7081 87.6972Z" fill="white"/>
<path d="M115.518 95.9208L123.628 109.569H127.508L119.355 95.8347C124.587 95.1458 126.505 91.3569 126.505 87.6972C126.505 83.6931 124.194 79.4306 117.698 79.4306H107.322V109.569H110.679V95.9208H115.518ZM123.104 87.6972C123.104 90.5819 121.142 92.7347 117.698 92.7347H110.679V82.7028H117.698C121.142 82.7028 123.104 84.8125 123.104 87.6972Z" fill="white"/>
<path d="M152.419 82.7028V79.4306H135.024V82.7028H142.043V106.297H135.024V109.569H152.419V106.297H145.4V82.7028H152.419Z" fill="white"/>
<path d="M161.417 79.4306V109.569H171.27C177.112 109.569 181.123 105.694 181.123 99.3653V89.6347C181.123 83.3056 177.112 79.4306 171.27 79.4306H161.417ZM171.27 82.7028C174.889 82.7458 177.766 85.0708 177.766 89.6347V99.3653C177.766 103.929 174.889 106.297 171.27 106.297H164.774V82.7028H171.27Z" fill="white"/>
<path d="M198.579 79C192.737 79 188.726 82.875 188.726 89.2042V99.7958C188.726 106.125 192.737 110 198.579 110C204.421 110 208.432 106.125 208.432 99.7958V93.5528H198.579V96.825H205.075V99.7958C205.075 104.36 202.198 106.728 198.579 106.728C194.961 106.728 192.083 104.36 192.083 99.7958V89.2042C192.083 84.6403 194.961 82.2722 198.579 82.2722C201.98 82.2722 204.683 84.3389 205.032 88.3431H208.388C208.04 82.5306 204.16 79 198.579 79Z" fill="white"/>
<path d="M221.005 95.9639H231.948V92.6917H221.005V82.7028H235V79.4306H217.648V109.569H235V106.297H221.005V95.9639Z" fill="white"/>
</svg>
