<svg width="77" height="49" viewBox="0 0 77 49" fill="none" xmlns="http://www.w3.org/2000/svg">
<rect width="62" height="24" transform="translate(7.5)" fill="#101010"/>
<path d="M19.6697 7.48C18.0617 7.48 16.9577 8.56 16.9577 10.324V13.276C16.9577 15.04 18.0617 16.12 19.6697 16.12C21.2777 16.12 22.3817 15.04 22.3817 13.276V11.536H19.6697V12.448H21.4577V13.276C21.4577 14.548 20.6657 15.208 19.6697 15.208C18.6737 15.208 17.8817 14.548 17.8817 13.276V10.324C17.8817 9.052 18.6737 8.392 19.6697 8.392C20.6057 8.392 21.3497 8.968 21.4457 10.084H22.3697C22.2737 8.464 21.2057 7.48 19.6697 7.48ZM25.8424 12.208H28.8544V11.296H25.8424V8.512H29.6944V7.6H24.9184V16H29.6944V15.088H25.8424V12.208ZM36.5152 13.276C36.5152 14.548 35.7232 15.208 34.7272 15.208C33.7312 15.208 32.9392 14.548 32.9392 13.276V10.324C32.9392 9.052 33.7312 8.392 34.7272 8.392C35.7232 8.392 36.5152 9.052 36.5152 10.324V13.276ZM37.4392 10.324C37.4392 8.56 36.3352 7.48 34.7272 7.48C33.1192 7.48 32.0152 8.56 32.0152 10.324V13.276C32.0152 15.04 33.1192 16.12 34.7272 16.12C36.3352 16.12 37.4392 15.04 37.4392 13.276V10.324ZM42.052 12.196L44.284 16H45.352L43.108 12.172C44.548 11.98 45.076 10.924 45.076 9.904C45.076 8.788 44.44 7.6 42.652 7.6H39.796V16H40.72V12.196H42.052ZM44.14 9.904C44.14 10.708 43.6 11.308 42.652 11.308H40.72V8.512H42.652C43.6 8.512 44.14 9.1 44.14 9.904ZM49.8328 7.48C48.2248 7.48 47.1208 8.56 47.1208 10.324V13.276C47.1208 15.04 48.2248 16.12 49.8328 16.12C51.4408 16.12 52.5448 15.04 52.5448 13.276V11.536H49.8328V12.448H51.6208V13.276C51.6208 14.548 50.8288 15.208 49.8328 15.208C48.8368 15.208 48.0448 14.548 48.0448 13.276V10.324C48.0448 9.052 48.8368 8.392 49.8328 8.392C50.7688 8.392 51.5128 8.968 51.6088 10.084H52.5328C52.4368 8.464 51.3688 7.48 49.8328 7.48ZM56.0056 12.208H59.0176V11.296H56.0056V8.512H59.8576V7.6H55.0816V16H59.8576V15.088H56.0056V12.208Z" fill="white"/>
<rect width="77" height="24" transform="translate(0 25)" fill="#101010"/>
<path d="M10.2449 38.528L11.7329 36.776L14.5169 41H15.6089L12.3449 36.056L15.2969 32.6H14.1209L10.2449 37.16V32.6H9.32087V41H10.2449V38.528ZM18.3017 37.208H21.3137V36.296H18.3017V33.512H22.1537V32.6H17.3777V41H22.1537V40.088H18.3017V37.208ZM26.9704 37.196L29.2024 41H30.2704L28.0264 37.172C29.4664 36.98 29.9944 35.924 29.9944 34.904C29.9944 33.788 29.3584 32.6 27.5704 32.6H24.7144V41H25.6384V37.196H26.9704ZM29.0584 34.904C29.0584 35.708 28.5184 36.308 27.5704 36.308H25.6384V33.512H27.5704C28.5184 33.512 29.0584 34.1 29.0584 34.904ZM34.5112 37.196L36.7432 41H37.8112L35.5672 37.172C37.0072 36.98 37.5352 35.924 37.5352 34.904C37.5352 33.788 36.8992 32.6 35.1112 32.6H32.2552V41H33.1792V37.196H34.5112ZM36.5992 34.904C36.5992 35.708 36.0592 36.308 35.1112 36.308H33.1792V33.512H35.1112C36.0592 33.512 36.5992 34.1 36.5992 34.904ZM44.668 33.512V32.6H39.88V33.512H41.812V40.088H39.88V41H44.668V40.088H42.736V33.512H44.668ZM47.1448 32.6V41H49.8568C51.4648 41 52.5688 39.92 52.5688 38.156V35.444C52.5688 33.68 51.4648 32.6 49.8568 32.6H47.1448ZM49.8568 33.512C50.8528 33.524 51.6448 34.172 51.6448 35.444V38.156C51.6448 39.428 50.8528 40.088 49.8568 40.088H48.0688V33.512H49.8568ZM57.3736 32.48C55.7656 32.48 54.6616 33.56 54.6616 35.324V38.276C54.6616 40.04 55.7656 41.12 57.3736 41.12C58.9816 41.12 60.0856 40.04 60.0856 38.276V36.536H57.3736V37.448H59.1616V38.276C59.1616 39.548 58.3696 40.208 57.3736 40.208C56.3776 40.208 55.5856 39.548 55.5856 38.276V35.324C55.5856 34.052 56.3776 33.392 57.3736 33.392C58.3096 33.392 59.0536 33.968 59.1496 35.084H60.0736C59.9776 33.464 58.9096 32.48 57.3736 32.48ZM63.5463 37.208H66.5583V36.296H63.5463V33.512H67.3983V32.6H62.6223V41H67.3983V40.088H63.5463V37.208Z" fill="white"/>
</svg>
